<?xml version="1.0" encoding="UTF-8"?>
<svg id="_Ñëîé_1" data-name="Ñëîé_1" xmlns="http://www.w3.org/2000/svg" version="1.1" viewBox="0 0 1239.3 1210.6">
  <!-- Generator: Adobe Illustrator 29.2.1, SVG Export Plug-In . SVG Version: 2.1.0 Build 116)  -->
  <defs>
    <style>
      .st0 {
        fill: #fff;
      }
    </style>
  </defs>
  <rect class="st0" x="0" y="2" width="1239.3" height="1206.7" rx="222.2" ry="222.2"/>
  <g>
    <path d="M407.3,324.2c20.2,0,40.3,0,60.5,0,9.4,0,9.4,0,12.5,8.6,61,170.8,122.1,341.7,183.1,512.5.5,1.3.9,2.5,1.2,3.9,1.1,5.3-.4,7.2-5.9,7.2-12.2.1-24.4,0-36.6,0-21.7,0-43.4,0-65.1,0-9.3,0-10-.6-13-9.1-12.8-37.4-25.7-74.8-38.4-112.3-1.5-4.6-3.5-6.3-8.5-6.2-59.1.2-118.3.2-177.4,0-4.8,0-6.7,1.5-8.1,5.9-11.7,37-23.8,73.8-35.7,110.8-3.1,9.5-4.5,10.6-14.4,10.6-28.9,0-57.8,0-86.7,0-12,0-13.2-1.7-9.3-12.8,38.3-109.5,76.6-219,114.9-328.5,17.1-48.8,34.4-97.6,50.7-146.7,3.7-11.1,3.9-23.5,5.2-35.3.9-8.2.7-8.6,8.8-8.6,20.7,0,41.5,0,62.2,0ZM344.3,627.8h128.1c-21.9-70.5-43.8-140.8-65-209.1-20.7,68.5-41.9,138.7-63.1,209.1Z"/>
    <path d="M1034.1,668.2c4.9,0,22.1,0,22.1,0,0,0-.1-42.4-.8-56.4-1.2-23.7-4.9-47.4-12.6-69.5-12-34.5-34.7-64.2-66.6-82.7-17.1-9.9-36.1-16.5-55.5-20-69.3-12.4-145.6,4.1-189.1,62.6-34.8,46.8-45,108.2-44.9,165.2,0,0,.4,174.6,185.8,188.4,0,0,81.3,6.1,147.6-22.8v-88.3s-206.4,62.7-219.8-77.4c31.7.1,63.4.2,95.1.3,46.3.2,92.5.3,138.8.5ZM876,517.2c41.8,0,75.8,33.8,75.8,75.5h-151.5c0-41.7,33.9-75.5,75.8-75.5Z"/>
  </g>
</svg>