<?xml version="1.0" encoding="UTF-8"?>
<svg id="_Ñëîé_1" data-name="Ñëîé_1" xmlns="http://www.w3.org/2000/svg" version="1.1" viewBox="0 0 1239.3 1210.6">
  <!-- Generator: Adobe Illustrator 29.2.1, SVG Export Plug-In . SVG Version: 2.1.0 Build 116)  -->
  <defs>
    <style>
      .st0 {
        fill: #fff;
      }
    </style>
  </defs>
  <path class="st0" d="M222.6,0h794.1c122.8,0,222.6,99.7,222.6,222.6v765.5c0,122.8-99.7,222.6-222.6,222.6H222.6C99.7,1210.6,0,1110.9,0,988V222.6C0,99.7,99.7,0,222.6,0Z"/>
  <g>
    <rect x="846.2" y="484.8" width="113.4" height="414.4"/>
    <circle cx="902.9" cy="376.6" r="65.2"/>
    <path d="M600.7,353.1h-146c0,24.6-4.3,48.9-12.6,72l-170.9,474h119.6l43-130.6,191.7-1.4,43.8,132h126.5l-195.2-546ZM465.3,661.7l62.3-212,65.4,212h-127.7Z"/>
  </g>
</svg>