<?xml version="1.0" encoding="UTF-8"?>
<svg id="_Ñëîé_1" data-name="Ñëîé_1" xmlns="http://www.w3.org/2000/svg" version="1.1" viewBox="0 0 1239.3 1210.6">
  <!-- Generator: Adobe Illustrator 29.2.1, SVG Export Plug-In . SVG Version: 2.1.0 Build 116)  -->
  <defs>
    <style>
      .st0 {
        fill: #fff;
      }
    </style>
  </defs>
  <path class="st0" d="M222.6,0h794.1c122.8,0,222.6,99.7,222.6,222.6v765.5c0,122.8-99.7,222.6-222.6,222.6H222.6C99.7,1210.6,0,1110.9,0,988V222.6C0,99.7,99.7,0,222.6,0Z"/>
  <g>
    <rect x="327.7" y="355.8" width="118.6" height="548.6"/>
    <path d="M792.9,306.2v168.1h-72.4c-101.7,0-184.1,82.4-184.1,184.1v61.8c0,101.7,82.4,184.1,184.1,184.1h72.4s117.3-9,118.6-44.3V306.2h-118.6ZM792.9,806.6h-44.2c-55.5,0-100.4-45-100.4-100.4v-33.7c0-55.5,45-100.4,100.4-100.4h44.2v234.6Z"/>
  </g>
</svg>