<?xml version="1.0" encoding="UTF-8"?>
<svg id="_Ñëîé_1" data-name="Ñëîé_1" xmlns="http://www.w3.org/2000/svg" version="1.1" viewBox="0 0 1239.3 1210.6">
  <!-- Generator: Adobe Illustrator 29.2.1, SVG Export Plug-In . SVG Version: 2.1.0 Build 116)  -->
  <defs>
    <style>
      .st0 {
        fill: #fff;
      }
    </style>
  </defs>
  <path class="st0" d="M222.6,0h794.1c122.8,0,222.6,99.7,222.6,222.6v765.5c0,122.8-99.7,222.6-222.6,222.6H222.6C99.7,1210.6,0,1110.9,0,988V222.6C0,99.7,99.7,0,222.6,0Z"/>
  <path d="M486.1,310.1h-202v538.2h113.4v-168.1h88.6c51.1,0,97.4-20.7,130.8-54.2,33.5-33.5,54.2-79.8,54.2-130.8,0-102.2-82.9-185-185-185ZM533.5,556.9c-15.8,15.8-37.6,25.6-61.7,25.6h-74.3v-174.6h74.3c48.2,0,87.3,39.1,87.3,87.3s-9.8,45.9-25.6,61.7Z"/>
  <path d="M1024.9,727.7c0,35.7-16.7,69.8-42.9,93.6-29.6,26.9-70.8,38.3-109.9,41.3-4.7.4-9.4.6-14.1.7-43.5.9-89.2-8.4-128.7-26.6-.4-.2-.8-.4-1.3-.6,0-31.7.1-63.4.2-95.1,0,1.7,31.4,9.3,35.3,10.6,35.9,11.8,78.7,20.6,116.4,15.7,8-1,16.2-3,22.4-8.1,23.3-19.4-.3-43.4-19.3-52.7-20.6-10-42.8-16.3-63.8-25.4-19.9-8.6-39-19.7-54.8-34.5-52.5-49-50.5-131.2,3-178.7,30.3-26.9,71.3-35.5,110.8-37.2,40.9-1.8,82.2,5.5,120.1,21.1,1.5.6,3,1.3,3.8,2.6.7,1.1.7,2.6.7,3.9,0,32.4,0,64.7.1,97.1-6.2-5.3-14.6-7.5-21.9-10.6-7.9-3.5-16-6.5-24.3-9.2-29.2-9.4-67.1-18-97-7.7-11,3.8-19.2,11.6-19.2,23.8,0,18.9,18.5,27.9,33.6,34.8,18.7,8.5,38.7,13.7,57.3,22.4,48.4,22.5,93.5,61,93.5,118.8Z"/>
</svg>