<?xml version="1.0" encoding="UTF-8"?>
<svg id="_Ñëîé_1" data-name="Ñëîé_1" xmlns="http://www.w3.org/2000/svg" version="1.1" viewBox="0 0 1239.3 1210.6">
  <!-- Generator: Adobe Illustrator 29.2.1, SVG Export Plug-In . SVG Version: 2.1.0 Build 116)  -->
  <defs>
    <style>
      .st0 {
        fill: #fff;
      }
    </style>
  </defs>
  <path class="st0" d="M222.6,0h794.1c122.8,0,222.6,99.7,222.6,222.6v765.5c0,122.8-99.7,222.6-222.6,222.6H222.6C99.7,1210.6,0,1110.9,0,988V222.6C0,99.7,99.7,0,222.6,0Z"/>
  <g>
    <path d="M465.5,336.2h-202v538.2h113.4v-168.1h88.6c51.1,0,97.4-20.7,130.8-54.2,33.5-33.5,54.2-79.8,54.2-130.8,0-102.2-82.9-185-185-185ZM512.9,583c-15.8,15.8-37.6,25.6-61.7,25.6h-74.3v-174.6h74.3c48.2,0,87.3,39.1,87.3,87.3s-9.8,45.9-25.6,61.7Z"/>
    <path d="M831.7,514.9v-52.3h-108.2v411.8h108.2v-234.3c0-19.6,9.4-38.1,25.6-49.3,43.5-30,118.4-25.9,118.4-25.9v-113.4c-93.8,0-144,63.4-144,63.4Z"/>
  </g>
</svg>